<svg width="467" height="464" viewBox="0 0 467 464" fill="none" xmlns="http://www.w3.org/2000/svg">
<mask id="mask0_12_1012" style="mask-type:alpha" maskUnits="userSpaceOnUse" x="0" y="0" width="467" height="464">
<rect width="14.5032" height="342.402" transform="matrix(0.709245 0.704962 -0.709245 0.704962 243.464 0)" fill="#D9D9D9"/>
<rect width="14.5032" height="342.402" transform="matrix(0.709245 0.704962 -0.709245 0.704962 273.875 30.2281)" fill="#D9D9D9"/>
<rect width="14.5032" height="342.402" transform="matrix(0.709245 0.704962 -0.709245 0.704962 304.287 60.4563)" fill="#D9D9D9"/>
<rect width="14.5032" height="342.402" transform="matrix(0.709245 0.704962 -0.709245 0.704962 365.111 120.913)" fill="#D9D9D9"/>
<rect width="14.5032" height="342.402" transform="matrix(0.709245 0.704962 -0.709245 0.704962 425.935 181.369)" fill="#D9D9D9"/>
<rect width="14.5032" height="342.402" transform="matrix(0.709245 0.704962 -0.709245 0.704962 334.699 90.6844)" fill="#D9D9D9"/>
<rect width="14.5032" height="342.402" transform="matrix(0.709245 0.704962 -0.709245 0.704962 395.523 151.141)" fill="#D9D9D9"/>
<rect width="14.5032" height="342.402" transform="matrix(0.709245 0.704962 -0.709245 0.704962 456.346 211.597)" fill="#D9D9D9"/>
</mask>
<g mask="url(#mask0_12_1012)">
<path d="M5.75975 226.933C2.91926 224.11 2.91925 219.532 5.75975 216.709V216.709C8.60024 213.886 13.2056 213.886 16.0461 216.709L248.607 447.865C251.447 450.689 251.447 455.266 248.607 458.09V458.09C245.766 460.913 241.161 460.913 238.32 458.09L5.75975 226.933Z" fill="#75BD76"/>
<path d="M36.1715 196.705C33.331 193.882 33.331 189.304 36.1715 186.481V186.481C39.012 183.658 43.6174 183.658 46.4578 186.481L279.019 417.637C281.859 420.461 281.859 425.038 279.019 427.862V427.862C276.178 430.685 271.573 430.685 268.732 427.862L36.1715 196.705Z" fill="#75BD76"/>
<path d="M66.5833 166.477C63.7428 163.654 63.7428 159.076 66.5833 156.253V156.253C69.4238 153.429 74.0292 153.429 76.8697 156.253L309.43 387.409C312.271 390.232 312.271 394.81 309.43 397.633V397.633C306.59 400.457 301.985 400.457 299.144 397.633L66.5833 166.477Z" fill="#75BD76"/>
<path d="M127.407 106.021C124.566 103.197 124.566 98.6199 127.407 95.7965V95.7965C130.247 92.9732 134.853 92.9732 137.693 95.7965L370.254 326.953C373.094 329.776 373.094 334.354 370.254 337.177V337.177C367.413 340 362.808 340 359.968 337.177L127.407 106.021Z" fill="#75BD76"/>
<path d="M188.231 45.5644C185.39 42.7411 185.39 38.1635 188.231 35.3402V35.3402C191.071 32.5168 195.676 32.5168 198.517 35.3402L431.078 266.497C433.918 269.32 433.918 273.897 431.078 276.721V276.721C428.237 279.544 423.632 279.544 420.791 276.721L188.231 45.5644Z" fill="#75BD76"/>
<path d="M96.9951 136.249C94.1546 133.426 94.1546 128.848 96.9951 126.025V126.025C99.8356 123.201 104.441 123.201 107.281 126.025L339.842 357.181C342.683 360.004 342.683 364.582 339.842 367.405V367.405C337.002 370.229 332.396 370.229 329.556 367.405L96.9951 136.249Z" fill="#75BD76"/>
<path d="M157.819 75.7925C154.978 72.9692 154.978 68.3916 157.819 65.5683V65.5683C160.659 62.7449 165.265 62.745 168.105 65.5683L400.666 296.725C403.506 299.548 403.506 304.126 400.666 306.949V306.949C397.825 309.772 393.22 309.772 390.379 306.949L157.819 75.7925Z" fill="#75BD76"/>
<path d="M218.642 15.3363C215.802 12.513 215.802 7.93541 218.642 5.11207V5.11207C221.483 2.28873 226.088 2.28873 228.929 5.11207L461.489 236.268C464.33 239.092 464.33 243.669 461.489 246.493V246.493C458.649 249.316 454.043 249.316 451.203 246.493L218.642 15.3363Z" fill="#75BD76"/>
</g>
</svg>
