<svg width="563" height="660" viewBox="0 0 563 660" fill="none" xmlns="http://www.w3.org/2000/svg">
<path d="M460.524 217.613V348.827H117.224V217.613C117.224 174.068 133.974 132.171 164.044 100.504C194.114 68.8366 235.228 49.7957 278.964 47.2814C282.242 47.0915 285.545 46.9977 288.874 47C290.771 47 292.661 47.0282 294.537 47.0985C338.09 48.4684 379.475 66.3071 410.246 96.9738C411.173 97.8955 412.087 98.8242 413 99.767C443.512 131.504 460.535 173.715 460.524 217.613Z" fill="#75BD76"/>
<path d="M294.537 47.0986V348.827H278.964V47.2814C282.242 47.0915 285.545 46.9977 288.874 47C290.771 47 292.661 47.0282 294.537 47.0986Z" fill="white"/>
<path d="M426.201 115.245H151.547C155.636 109.831 160.044 104.662 164.748 99.767H413C417.704 104.662 422.112 109.831 426.201 115.245Z" fill="white"/>
<path d="M434.397 159.57H312.728V364.305H434.397V159.57Z" fill="white"/>
<path d="M355.157 194.158H336.753V212.451H355.157V194.158Z" fill="#75BD76"/>
<path d="M384.808 194.158H366.404V212.451H384.808V194.158Z" fill="#75BD76"/>
<path d="M414.459 194.158H396.055V212.451H414.459V194.158Z" fill="#75BD76"/>
<path d="M355.669 235.825H337.265V254.118H355.669V235.825Z" fill="#75BD76"/>
<path d="M385.32 235.825H366.916V254.118H385.32V235.825Z" fill="#75BD76"/>
<path d="M414.971 235.825H396.566V254.118H414.971V235.825Z" fill="#75BD76"/>
<path d="M356.18 277.492H337.776V295.785H356.18V277.492Z" fill="#75BD76"/>
<path d="M385.831 277.492H367.427V295.785H385.831V277.492Z" fill="#75BD76"/>
<path d="M415.482 277.492H397.078V295.785H415.482V277.492Z" fill="#75BD76"/>
<path d="M356.691 319.159H338.287V337.452H356.691V319.159Z" fill="#75BD76"/>
<path d="M386.342 319.159H367.938V337.452H386.342V319.159Z" fill="#75BD76"/>
<path d="M415.993 319.159H397.589V337.452H415.993V319.159Z" fill="#75BD76"/>
<path d="M356.691 319.159H338.287V337.452H356.691V319.159Z" fill="#75BD76"/>
<path d="M386.342 319.159H367.938V337.452H386.342V319.159Z" fill="#75BD76"/>
<path d="M415.993 319.159H397.589V337.452H415.993V319.159Z" fill="#75BD76"/>
<path d="M158.032 307.197C172.041 307.197 183.397 295.909 183.397 281.985C183.397 268.061 172.041 256.773 158.032 256.773C144.023 256.773 132.667 268.061 132.667 281.985C132.667 295.909 144.023 307.197 158.032 307.197Z" fill="white"/>
<path d="M158.102 281.985H158.171L159.426 353.466H156.778L158.102 281.985Z" fill="white"/>
<path d="M162.72 320.92L162.136 319.817L157.943 322.011L158.527 323.114L162.72 320.92Z" fill="white"/>
<path d="M232.606 283.106C253.909 283.106 271.178 265.941 271.178 244.767C271.178 223.592 253.909 206.427 232.606 206.427C211.303 206.427 194.033 223.592 194.033 244.767C194.033 265.941 211.303 283.106 232.606 283.106Z" fill="white"/>
<path d="M232.712 244.766H232.818L234.725 353.466H230.699L232.712 244.766Z" fill="white"/>
<path d="M239.735 303.974L238.846 302.297L232.47 305.633L233.359 307.311L239.735 303.974Z" fill="white"/>
<path d="M153.048 208.157L159.564 202.977C154.502 202.422 152.422 205.166 151.571 207.338C147.616 205.705 143.311 207.844 143.311 207.844L156.349 212.549C155.691 210.803 154.546 209.279 153.048 208.157Z" fill="white"/>
<path d="M221.708 165.943L228.224 160.763C223.162 160.208 221.082 162.952 220.231 165.124C216.276 163.492 211.971 165.631 211.971 165.631L225.009 170.335C224.351 168.589 223.206 167.066 221.708 165.943Z" fill="white"/>
<path d="M195.518 206.046L202.034 200.866C196.972 200.311 194.892 203.055 194.041 205.227C190.086 203.595 185.781 205.734 185.781 205.734L198.819 210.438C198.161 208.692 197.016 207.169 195.518 206.046Z" fill="white"/>
<path d="M478.573 333.349H99.1747V364.305H478.573V333.349Z" fill="#4E944F"/>
<path fill-rule="evenodd" clip-rule="evenodd" d="M282.186 526.188C334.991 525.562 391.865 518.414 434.75 525.722C480.456 533.51 489.72 548.463 491.029 561.776C492.374 575.462 482.447 589.744 442.007 599.546C401.168 609.444 340.144 614.269 282.186 612.394C229.729 610.698 198.057 599.353 160.836 590.454C123.975 581.642 73.8121 574.142 70.4531 561.776C66.9797 548.99 100.005 536.59 144.187 529.164C183.317 522.587 234.228 526.756 282.186 526.188Z" fill="#C0EFC1"/>
<path d="M64.1853 203.04C69.8874 199.163 77.2261 207.707 73.234 213.026C69.1986 218.403 60.3762 216.879 57.3383 211.389C53.4622 204.384 57.3221 196.051 63.5688 191.985C70.6648 187.365 79.3615 187.105 87.555 187.538C95.8307 187.975 103.907 188.556 112.151 187.376C119.13 186.361 125.949 184.46 132.442 181.72C145.791 176.146 157.512 167.32 166.524 156.056C170.729 150.753 174.66 144.793 177.067 138.444C178.921 133.554 179.799 127.123 177.172 122.337C176.601 121.26 175.795 120.323 174.814 119.594C173.833 118.865 172.701 118.363 171.5 118.123C170.299 117.883 169.059 117.912 167.871 118.208C166.683 118.504 165.576 119.059 164.63 119.833C160.252 123.398 159.069 130.019 162.417 134.633C166.01 139.583 172.788 141.28 178.625 140.379C186.736 139.126 193.304 133.434 199.514 128.534L245.503 92.2425C253.087 86.2582 260.592 80.1579 268.274 74.298C274.52 69.5326 282.142 64.9121 290.278 67.4574C293.557 68.4834 296.862 70.9132 297.682 74.4041C297.988 76.0027 297.85 77.654 297.281 79.18C296.713 80.7061 295.736 82.049 294.457 83.064C293.872 83.5575 293.191 83.9247 292.456 84.1424C291.721 84.3601 290.949 84.4236 290.188 84.3288C289.427 84.2339 288.694 83.9829 288.036 83.5916C287.378 83.2003 286.809 82.6772 286.365 82.0556C284.651 79.6789 284.51 76.2903 285.497 73.6047C288.136 66.4275 297.819 65.6766 304.281 66.2603C311.906 67.0283 319.271 69.4377 325.864 73.3212C339.52 81.2051 349.62 94.0303 355.543 108.448C362.107 124.423 364.129 142.1 363.861 159.249C363.806 162.747 363.563 166.616 361.582 169.632C359.642 172.585 356.258 173.479 353.222 171.504C352.233 170.861 350.962 169.608 351.22 168.286C351.544 166.626 354.871 166.614 356.204 166.677C359.851 166.851 363.3 168.678 365.912 171.142C372.121 176.998 372.604 185.957 371.795 193.923C370.906 202.669 368.37 211.367 369.377 220.22C371.027 234.725 383 242.784 394.761 249.452C400.784 252.867 406.938 256.132 412.354 260.476C417.874 264.921 422.706 270.148 426.696 275.991C434.579 287.519 439.227 300.928 440.159 314.836C440.628 321.785 440.076 328.765 438.52 335.556C436.973 342.198 434.536 350.571 428.115 354.139C426.585 355.009 424.824 355.391 423.068 355.235C421.312 355.078 419.647 354.39 418.298 353.263C415.696 351.188 414.425 347.505 417.112 344.912C419.339 342.764 422.902 343.216 425.589 344.09C428.824 345.141 431.341 347.103 433.752 349.421C438.348 353.84 443.728 359.264 450.72 357.853C452.012 357.592 451.465 355.628 450.175 355.888C441.734 357.592 436.645 347.841 430.42 344.086C425.913 341.368 418.216 339.348 414.694 344.648C410.893 350.368 417.004 356.54 422.683 357.277C430.066 358.235 435.185 351.059 437.664 345.136C443.413 331.399 443.592 315.292 440.075 300.989C436.56 286.463 428.959 273.23 418.16 262.837C412.71 257.674 406.461 253.715 399.943 250.03C393.362 246.311 386.504 242.743 380.874 237.638C377.756 234.904 375.275 231.527 373.604 227.742C371.933 223.958 371.113 219.856 371.201 215.724C371.261 206.207 374.34 196.971 374.148 187.436C373.989 179.53 371.286 171.81 364.366 167.359C361.515 165.436 358.11 164.491 354.669 164.668C353.269 164.782 351.303 165.017 350.15 165.888C349.221 166.589 349.046 168.231 349.233 169.293C349.677 171.814 352.077 173.565 354.407 174.267C355.823 174.719 357.344 174.737 358.771 174.319C360.198 173.9 361.465 173.064 362.408 171.92C364.649 169.348 365.427 165.917 365.744 162.614C366.174 158.139 365.936 153.542 365.737 149.06C364.931 130.843 361.309 112.19 351.785 96.369C343.689 82.9206 331.097 71.6443 315.999 66.6555C308.885 64.3047 300.446 62.8959 293.105 65.0339C286.789 66.8734 281.949 72.0401 282.992 78.8832C283.875 84.6758 289.913 88.6824 295.235 85.0263C296.49 84.1635 297.544 83.0416 298.323 81.7372C299.102 80.4328 299.589 78.9766 299.751 77.468C299.912 75.9594 299.744 74.434 299.258 72.9959C298.772 71.5578 297.979 70.2409 296.934 69.1351C291.79 63.7805 283.402 63.819 276.983 66.5403C273.117 68.179 269.695 70.6344 266.394 73.1851C262.187 76.4364 258.038 79.7657 253.865 83.0595L203.583 122.738C199.615 125.87 195.71 129.116 191.609 132.076C187.782 134.839 183.56 137.397 178.849 138.284C172.215 139.533 161.713 136.258 162.518 127.894C162.83 124.646 164.995 121.059 168.303 120.128C171.546 119.215 174.608 121.288 175.813 124.224C178.471 130.695 175.35 138.098 172.246 143.779C164.559 157.845 152.434 169.301 138.228 176.755C131.117 180.495 123.495 183.183 115.603 184.736C106.738 186.467 98.0396 186.128 89.0767 185.588C80.3883 185.064 71.2647 185.117 63.5208 189.618C57.1709 193.308 52.9349 200 53.9528 207.457C54.8367 213.933 60.0618 218.882 66.8008 218.335C72.4572 217.876 78.1402 213.075 76.1333 206.977C74.4715 201.927 68.0568 197.945 63.1505 201.281C62.0681 202.016 63.0925 203.783 64.1853 203.04Z" fill="#3F3D56"/>
<path d="M498.633 350.157H448.964C448.188 350.158 447.444 350.464 446.895 351.01C446.347 351.555 446.038 352.295 446.037 353.066V383.803C446.038 384.575 446.347 385.314 446.895 385.859C447.444 386.405 448.188 386.712 448.964 386.712H498.633C499.409 386.712 500.153 386.405 500.702 385.859C501.251 385.314 501.56 384.575 501.56 383.803V353.066C501.56 352.295 501.251 351.555 500.702 351.01C500.153 350.464 499.41 350.158 498.633 350.157Z" fill="#4E944F"/>
<path d="M498.633 350.157H448.964C448.188 350.158 447.444 350.464 446.895 351.01C446.347 351.555 446.038 352.295 446.037 353.066V383.803C446.038 384.575 446.347 385.314 446.895 385.859C447.444 386.405 448.188 386.712 448.964 386.712H498.633C499.409 386.712 500.153 386.405 500.702 385.859C501.251 385.314 501.56 384.575 501.56 383.803V353.066C501.56 352.295 501.251 351.555 500.702 351.01C500.153 350.464 499.41 350.158 498.633 350.157ZM499.594 372.236C499.582 375.365 498.337 378.365 496.125 380.592C493.914 382.819 490.912 384.096 487.764 384.149C482.724 384.214 490.553 384.239 484.474 384.239C470.575 384.239 456.082 384.107 450.674 384.022C449.963 384.007 449.285 383.717 448.786 383.212C448.287 382.708 448.006 382.03 448.004 381.322V353.068C448.004 352.815 448.105 352.572 448.285 352.393C448.465 352.213 448.709 352.112 448.964 352.111H498.631C498.886 352.112 499.131 352.212 499.311 352.391C499.491 352.57 499.593 352.812 499.594 353.066L499.594 372.236Z" fill="#E9EFC0"/>
<path d="M492.519 332.457H454.676C454.342 332.458 454.015 332.561 453.741 332.753C453.468 332.945 453.26 333.216 453.147 333.529L447.303 349.827C447.216 350.07 447.188 350.331 447.224 350.587C447.259 350.843 447.355 351.087 447.505 351.298C447.654 351.509 447.853 351.681 448.083 351.8C448.314 351.919 448.57 351.982 448.83 351.982L499.583 352.072H499.585C499.854 352.072 500.118 352.005 500.355 351.879C500.591 351.752 500.792 351.569 500.94 351.346C501.088 351.124 501.178 350.868 501.202 350.602C501.226 350.336 501.183 350.068 501.077 349.823L494.011 333.435C493.886 333.145 493.678 332.897 493.413 332.723C493.148 332.55 492.837 332.457 492.519 332.457Z" fill="#E9EFC0"/>
<path d="M501.208 350.177C501.208 350.395 501.164 350.612 501.077 350.812L494.012 363.427C493.886 363.717 493.677 363.964 493.412 364.137C493.147 364.311 492.837 364.404 492.519 364.404H454.677C454.342 364.404 454.015 364.301 453.741 364.109C453.468 363.917 453.26 363.646 453.147 363.333L447.303 350.808C447.232 350.609 447.2 350.397 447.211 350.185C447.222 349.974 447.274 349.766 447.366 349.575C447.457 349.384 447.585 349.212 447.744 349.07C447.902 348.928 448.087 348.818 448.287 348.747C448.461 348.685 448.644 348.653 448.829 348.653L455.029 348.641L457.559 348.637L490.856 348.579L493.388 348.575L499.583 348.563H499.585C500.015 348.563 500.428 348.733 500.733 349.036C501.037 349.338 501.208 349.749 501.208 350.177Z" fill="#E9EFC0"/>
<path d="M452.688 373.213C453.438 373.213 463.743 373.839 463.743 374.585C463.743 375.331 453.438 375.914 452.688 375.914C452.327 375.914 451.982 375.772 451.727 375.519C451.472 375.265 451.329 374.922 451.329 374.564C451.329 374.206 451.472 373.862 451.727 373.609C451.982 373.355 452.327 373.213 452.688 373.213Z" fill="#E9EFC0"/>
<path d="M490.163 322.542H458.254C457.399 322.543 456.579 322.881 455.975 323.482C455.37 324.083 455.03 324.898 455.029 325.748V364.404H492.519C492.827 364.405 493.129 364.318 493.388 364.153V325.748C493.387 324.898 493.047 324.083 492.442 323.482C491.838 322.881 491.018 322.543 490.163 322.542Z" fill="#4E944F"/>
<path d="M477.984 325.142H460.497C459.718 325.142 458.972 325.45 458.421 325.997C457.87 326.544 457.56 327.286 457.559 328.06V364.404H490.856V337.936C490.852 334.544 489.495 331.292 487.082 328.893C484.668 326.495 481.396 325.145 477.984 325.142Z" fill="white"/>
<path d="M485.184 361.176H463.232C463.042 361.176 462.86 361.251 462.726 361.385C462.592 361.518 462.516 361.699 462.516 361.888C462.516 362.076 462.592 362.257 462.726 362.39C462.86 362.524 463.042 362.599 463.232 362.599H485.184C485.373 362.599 485.555 362.524 485.689 362.39C485.824 362.257 485.899 362.076 485.899 361.888C485.899 361.699 485.824 361.518 485.689 361.385C485.555 361.251 485.373 361.176 485.184 361.176Z" fill="#E4E4E4"/>
<path d="M485.184 358.364H463.232C463.042 358.364 462.86 358.439 462.725 358.572C462.591 358.706 462.516 358.887 462.516 359.076C462.516 359.264 462.591 359.445 462.725 359.579C462.86 359.712 463.042 359.787 463.232 359.787H485.184C485.278 359.787 485.371 359.769 485.458 359.733C485.545 359.697 485.624 359.645 485.69 359.579C485.757 359.513 485.809 359.434 485.845 359.348C485.881 359.262 485.9 359.169 485.9 359.076C485.9 358.982 485.881 358.89 485.845 358.803C485.809 358.717 485.757 358.638 485.69 358.572C485.624 358.506 485.545 358.454 485.458 358.418C485.371 358.382 485.278 358.364 485.184 358.364Z" fill="#E4E4E4"/>
<path d="M472.748 355.553H463.232C463.042 355.553 462.86 355.627 462.726 355.761C462.592 355.894 462.516 356.075 462.516 356.264C462.516 356.452 462.592 356.633 462.726 356.767C462.86 356.9 463.042 356.975 463.232 356.975H472.748C472.937 356.975 473.119 356.9 473.253 356.767C473.388 356.633 473.463 356.452 473.463 356.264C473.463 356.075 473.388 355.894 473.253 355.761C473.119 355.627 472.937 355.553 472.748 355.553Z" fill="#E4E4E4"/>
<path d="M485.184 349.663H463.232C463.042 349.664 462.861 349.739 462.727 349.872C462.593 350.006 462.518 350.186 462.518 350.375C462.518 350.563 462.593 350.744 462.727 350.877C462.861 351.011 463.042 351.086 463.232 351.087H485.184C485.278 351.087 485.371 351.069 485.458 351.033C485.545 350.998 485.625 350.945 485.691 350.879C485.758 350.813 485.811 350.734 485.847 350.648C485.883 350.561 485.902 350.469 485.902 350.375C485.902 350.281 485.883 350.188 485.847 350.102C485.811 350.015 485.758 349.937 485.691 349.871C485.625 349.805 485.545 349.752 485.458 349.717C485.371 349.681 485.278 349.663 485.184 349.663Z" fill="#E4E4E4"/>
<path d="M485.184 346.852H463.232C463.042 346.852 462.86 346.927 462.726 347.06C462.592 347.193 462.516 347.374 462.516 347.563C462.516 347.752 462.592 347.932 462.726 348.066C462.86 348.199 463.042 348.274 463.232 348.274H485.184C485.373 348.274 485.555 348.199 485.689 348.066C485.824 347.932 485.899 347.752 485.899 347.563C485.899 347.374 485.824 347.193 485.689 347.06C485.555 346.927 485.373 346.852 485.184 346.852Z" fill="#E4E4E4"/>
<path d="M472.748 344.039H463.232C463.042 344.039 462.86 344.114 462.725 344.248C462.591 344.381 462.516 344.562 462.516 344.751C462.516 344.94 462.591 345.121 462.725 345.254C462.86 345.388 463.042 345.463 463.232 345.463H472.748C472.938 345.463 473.12 345.388 473.254 345.254C473.388 345.121 473.464 344.94 473.464 344.751C473.464 344.562 473.388 344.381 473.254 344.248C473.12 344.114 472.938 344.039 472.748 344.039Z" fill="#E4E4E4"/>
<path d="M485.184 338.15H463.232C463.042 338.15 462.861 338.226 462.727 338.359C462.593 338.492 462.518 338.673 462.518 338.862C462.518 339.05 462.593 339.231 462.727 339.364C462.861 339.498 463.042 339.573 463.232 339.573H485.184C485.278 339.574 485.371 339.556 485.458 339.52C485.545 339.484 485.625 339.432 485.691 339.366C485.758 339.3 485.811 339.221 485.847 339.135C485.883 339.048 485.902 338.955 485.902 338.862C485.902 338.768 485.883 338.675 485.847 338.589C485.811 338.502 485.758 338.424 485.691 338.357C485.625 338.291 485.545 338.239 485.458 338.203C485.371 338.168 485.278 338.149 485.184 338.15Z" fill="#E4E4E4"/>
<path d="M485.184 335.339H463.232C463.042 335.339 462.861 335.414 462.727 335.548C462.593 335.681 462.518 335.862 462.518 336.05C462.518 336.239 462.593 336.42 462.727 336.553C462.861 336.686 463.042 336.762 463.232 336.762H485.184C485.278 336.763 485.371 336.744 485.458 336.709C485.545 336.673 485.625 336.621 485.691 336.555C485.758 336.488 485.811 336.41 485.847 336.323C485.883 336.237 485.902 336.144 485.902 336.05C485.902 335.957 485.883 335.864 485.847 335.777C485.811 335.691 485.758 335.612 485.691 335.546C485.625 335.48 485.545 335.428 485.458 335.392C485.371 335.356 485.278 335.338 485.184 335.339Z" fill="#E4E4E4"/>
<path d="M472.748 332.526H463.232C463.042 332.526 462.86 332.601 462.725 332.734C462.591 332.868 462.516 333.049 462.516 333.238C462.516 333.427 462.591 333.608 462.725 333.741C462.86 333.875 463.042 333.95 463.232 333.95H472.748C472.842 333.95 472.935 333.931 473.022 333.895C473.109 333.86 473.188 333.807 473.254 333.741C473.321 333.675 473.373 333.597 473.409 333.51C473.445 333.424 473.464 333.331 473.464 333.238C473.464 333.144 473.445 333.052 473.409 332.965C473.373 332.879 473.321 332.8 473.254 332.734C473.188 332.668 473.109 332.616 473.022 332.58C472.935 332.544 472.842 332.526 472.748 332.526Z" fill="#E4E4E4"/>
<path d="M236.341 199.232C248.039 199.232 257.523 189.806 257.523 178.178C257.523 166.55 248.039 157.124 236.341 157.124C224.642 157.124 215.159 166.55 215.159 178.178C215.159 189.806 224.642 199.232 236.341 199.232Z" fill="#FFB6B6"/>
<path d="M260.52 166.123C258.292 162.697 254.111 160.413 250.058 161.055C249.68 158.484 248.601 156.064 246.936 154.061C245.271 152.057 243.085 150.546 240.616 149.692C238.148 148.838 235.49 148.673 232.934 149.216C230.377 149.759 228.02 150.989 226.118 152.771C225.492 152.334 224.763 152.064 224.002 151.988C223.241 151.912 222.473 152.033 221.773 152.339C220.378 152.97 219.164 153.938 218.243 155.155C215.917 158.038 214.421 161.494 213.914 165.155C213.408 168.817 213.909 172.546 215.366 175.946C214.87 174.156 216.675 172.472 218.499 172.07C220.322 171.668 222.235 172.048 224.084 171.787C226.454 171.452 228.585 170.085 230.958 169.777C232.953 169.519 234.96 170.027 236.905 170.537C238.851 171.047 240.852 171.566 242.849 171.33C244.847 171.095 247.421 178.62 247.386 183.921C247.38 184.926 247.588 186.215 248.576 186.428C249.792 186.691 250.497 185.022 251.654 184.568C252.188 184.416 252.76 184.476 253.25 184.735C253.74 184.994 254.11 185.432 254.281 185.956C254.427 186.49 254.443 187.05 254.327 187.59C254.211 188.131 253.967 188.636 253.615 189.064C252.903 189.912 252.058 190.641 251.113 191.221L251.59 191.615C252.383 192.657 254.028 192.702 255.171 192.058C256.264 191.322 257.149 190.32 257.742 189.147C259.857 185.651 261.712 181.926 262.459 177.914C263.205 173.903 262.748 169.549 260.52 166.123Z" fill="#2F2E41"/>
<path d="M261.188 546.874L249.749 546.872L244.307 503.014L261.191 503.014L261.188 546.874Z" fill="#FFB6B6"/>
<path d="M261.591 558.735L226.412 558.734V558.292C226.413 554.682 227.855 551.221 230.423 548.668C232.991 546.116 236.474 544.682 240.105 544.682H240.106L246.532 539.837L258.521 544.683L261.592 544.683L261.591 558.735Z" fill="#2F2E41"/>
<path d="M281.817 526.797L272.843 533.847L241.208 502.796L254.454 492.388L281.817 526.797Z" fill="#FFB6B6"/>
<path d="M289.534 535.853L261.937 557.537L261.661 557.19C259.409 554.359 258.381 550.754 258.803 547.169C259.225 543.584 261.062 540.312 263.911 538.074L263.911 538.073L265.929 530.311L278.358 526.722L280.767 524.829L289.534 535.853Z" fill="#2F2E41"/>
<path d="M202.033 341.289L201.334 354.088L204.731 358.167L204.342 370.968L207.638 379.347L209.955 406.004L242.419 517.23L271.672 507.904L239.728 404.221L278.162 403.266L279.462 344.803L272.651 331.716L202.033 341.289Z" fill="#2F2E41"/>
<path d="M274.466 394.453L278.162 403.266L263.87 527.374L243.817 528.829L235.157 390.081L274.466 394.453Z" fill="#2F2E41"/>
<path d="M254.813 211.561L248.228 202.501L226.966 203.348L226.558 210.324L212.434 342.924L226.305 342.615L243.523 346.611L276.64 335.09L254.813 211.561Z" fill="#4E944F"/>
<path d="M217.888 345.376H185.28L193.788 285.691L197.237 261.498C197.237 261.498 194.795 244.208 193.613 235.174C193.503 234.21 193.671 233.234 194.098 232.362C194.484 231.544 194.989 230.787 195.596 230.114C199.562 225.569 208.483 221.626 214.077 219.469C216.958 218.365 218.961 217.729 218.961 217.729L226.557 210.326C237.461 223.867 217.888 345.376 217.888 345.376Z" fill="#3F3D56"/>
<path d="M250.682 206.631L261.027 212.524C261.027 212.524 291.663 217.525 294.642 228.961L283.365 262.797V333.907L256.027 344.803C256.027 344.803 232.445 229.921 250.682 206.631Z" fill="#3F3D56"/>
<path opacity="0.4" d="M240.211 387.208L235.157 445.397L243.763 513.118" fill="black"/>
<path d="M118.187 278.809C119.029 278.207 119.995 277.796 121.014 277.605C122.034 277.414 123.083 277.447 124.089 277.703C125.094 277.959 126.031 278.43 126.833 279.085C127.635 279.739 128.283 280.56 128.731 281.491L153.794 278.673L147.854 290.286L124.964 291.181C123.342 291.826 121.538 291.857 119.894 291.268C118.251 290.68 116.882 289.512 116.046 287.987C115.211 286.462 114.967 284.685 115.362 282.994C115.756 281.302 116.762 279.813 118.187 278.809Z" fill="#FFB6B6"/>
<path d="M223.381 227.959L230.553 232.217L190.384 288.464L141.354 292.605L139.402 278.691L175.526 267.919L193.382 233.517L223.381 227.959Z" fill="#3F3D56"/>
<path d="M369.574 274.054C368.732 273.452 367.766 273.041 366.747 272.85C365.727 272.659 364.678 272.693 363.672 272.948C362.667 273.204 361.731 273.676 360.928 274.33C360.126 274.984 359.479 275.806 359.03 276.736L333.967 273.919L339.908 285.532L362.797 286.427C364.42 287.072 366.223 287.103 367.867 286.514C369.51 285.925 370.88 284.758 371.715 283.232C372.55 281.707 372.794 279.931 372.399 278.239C372.005 276.547 371 275.058 369.574 274.054Z" fill="#FFB6B6"/>
<path d="M264.38 223.204L257.208 227.463L297.378 283.71L346.407 287.85L348.359 273.936L312.235 263.164L294.379 228.763L264.38 223.204Z" fill="#3F3D56"/>
<path d="M166.72 209.969V209.225H154.182V191.884H153.436V209.225H139.067V195.833C138.816 196.03 138.568 196.232 138.323 196.439V209.225H128.833C128.727 209.471 128.626 209.719 128.53 209.969H138.323V224.54H126.163C126.175 224.79 126.192 225.036 126.213 225.284H138.323V236.909H129.251C129.362 237.159 129.479 237.405 129.602 237.648H138.323V247.421H139.067V237.649H153.436V247.421H154.182V237.649H166.72V236.909H154.182C154.182 235.382 154.484 233.87 155.072 232.46C155.659 231.049 156.521 229.768 157.607 228.688C158.693 227.609 159.982 226.752 161.402 226.168C162.821 225.584 164.342 225.284 165.878 225.284H166.72V224.541H154.182V209.969H166.72ZM153.436 236.909H139.067V225.284H153.436V236.909ZM153.436 224.541H139.067V224.249C139.067 222.373 139.439 220.516 140.161 218.784C140.883 217.051 141.942 215.477 143.276 214.151C144.61 212.825 146.194 211.773 147.938 211.055C149.681 210.338 151.549 209.969 153.436 209.969V224.541Z" fill="#E9EFC0"/>
<path d="M275.649 107.081C275.551 107.121 275.441 107.121 275.344 107.081C275.246 107.041 275.168 106.963 275.127 106.866L274.089 104.373C274.049 104.275 274.049 104.166 274.089 104.069C274.13 103.972 274.208 103.894 274.306 103.854C274.403 103.814 274.513 103.814 274.611 103.854C274.709 103.895 274.787 103.972 274.827 104.069L275.865 106.563C275.906 106.66 275.906 106.769 275.865 106.866C275.824 106.964 275.747 107.041 275.649 107.081Z" fill="#3F3D56"/>
<path d="M296.589 88.6086L293.491 81.1656C293.255 80.5999 292.91 80.0858 292.474 79.6528C292.039 79.2197 291.522 78.8762 290.953 78.6417C290.384 78.4072 289.774 78.2864 289.158 78.2862C288.542 78.286 287.932 78.4064 287.363 78.6405L271.498 85.1661C270.929 85.4002 270.412 85.7435 269.976 86.1763C269.541 86.609 269.195 87.1229 268.959 87.6884C268.723 88.254 268.602 88.8602 268.601 89.4724C268.601 90.0846 268.722 90.6909 268.958 91.2566L285.958 132.089C286.194 132.655 286.539 133.169 286.975 133.602C287.41 134.035 287.927 134.379 288.496 134.613C289.065 134.848 289.675 134.969 290.291 134.969C290.907 134.969 291.517 134.849 292.086 134.615L307.951 128.089C308.52 127.855 309.037 127.512 309.473 127.079C309.908 126.646 310.254 126.132 310.49 125.567C310.726 125.001 310.847 124.395 310.848 123.783C310.848 123.17 310.727 122.564 310.491 121.998L298.795 93.9067C298.831 93.8919 298.864 93.8703 298.891 93.843C298.919 93.8157 298.941 93.7833 298.955 93.7476C298.97 93.7119 298.978 93.6737 298.978 93.6351C298.978 93.5965 298.97 93.5582 298.955 93.5225L296.976 88.7679C296.961 88.7322 296.939 88.6998 296.912 88.6725C296.884 88.6451 296.852 88.6235 296.816 88.6087C296.78 88.5939 296.742 88.5863 296.703 88.5863C296.664 88.5863 296.625 88.5938 296.589 88.6086Z" fill="#3F3D56"/>
<path d="M292.58 81.5737L309.556 122.348C309.909 123.195 309.911 124.146 309.563 124.994C309.214 125.843 308.543 126.521 307.694 126.88C307.684 126.887 307.672 126.892 307.661 126.897L291.719 133.454C290.86 133.807 289.895 133.807 289.037 133.453C288.178 133.099 287.496 132.421 287.141 131.568L270.165 90.7937C269.989 90.3712 269.899 89.9184 269.899 89.4611C269.899 89.0039 269.99 88.5512 270.167 88.1289C270.343 87.7066 270.601 87.323 270.927 86.9999C271.252 86.6768 271.639 86.4207 272.064 86.246L273.997 85.4508C273.998 85.7223 274.067 85.9894 274.197 86.2284C274.326 86.4674 274.513 86.671 274.741 86.8212C274.968 86.9715 275.23 87.0638 275.501 87.09C275.773 87.1161 276.048 87.0754 276.3 86.9713L285.389 83.2327C285.587 83.151 285.767 83.0308 285.918 82.8793C286.074 82.727 286.198 82.5455 286.283 82.3454C286.368 82.1453 286.413 81.9305 286.414 81.7133C286.415 81.4961 286.373 81.2807 286.291 81.0796C286.208 80.8785 286.087 80.6956 285.933 80.5414L288.006 79.6886C288.864 79.3358 289.828 79.3362 290.686 79.6897C291.543 80.0432 292.225 80.7209 292.58 81.5737Z" fill="#4E944F"/>
<path d="M273.878 102.828C273.78 102.868 273.67 102.868 273.573 102.827C273.475 102.787 273.397 102.71 273.356 102.613L272.318 100.119C272.278 100.022 272.278 99.9125 272.318 99.8153C272.359 99.7181 272.437 99.6408 272.535 99.6006C272.632 99.5603 272.742 99.5604 272.84 99.6007C272.938 99.641 273.016 99.7183 273.056 99.8155L274.094 102.309C274.135 102.406 274.135 102.516 274.094 102.613C274.053 102.71 273.976 102.787 273.878 102.828Z" fill="#3F3D56"/>
<path d="M271.789 98.0174C271.691 98.0575 271.581 98.0574 271.483 98.0171C271.386 97.9768 271.308 97.8996 271.267 97.8024L270.229 95.3089C270.209 95.2607 270.198 95.209 270.198 95.1568C270.198 95.1045 270.209 95.0528 270.229 95.0045C270.249 94.9562 270.278 94.9124 270.315 94.8754C270.352 94.8385 270.396 94.8092 270.445 94.7892C270.493 94.7692 270.546 94.759 270.598 94.759C270.651 94.7591 270.703 94.7695 270.751 94.7896C270.8 94.8096 270.844 94.839 270.881 94.8761C270.918 94.9131 270.947 94.9571 270.967 95.0054L272.005 97.4989C272.046 97.5962 272.046 97.7054 272.005 97.8026C271.964 97.8998 271.887 97.977 271.789 98.0174Z" fill="#3F3D56"/>
<path d="M277.633 84.4468C277.593 84.3495 277.593 84.2403 277.633 84.1431C277.674 84.0459 277.751 83.9687 277.849 83.9283L280.358 82.8964C280.456 82.8562 280.566 82.8562 280.664 82.8965C280.761 82.9368 280.839 83.0141 280.88 83.1114C280.92 83.2086 280.92 83.3179 280.879 83.4151C280.839 83.5123 280.761 83.5896 280.663 83.6298L278.155 84.6617C278.057 84.7018 277.947 84.7017 277.849 84.6614C277.751 84.6211 277.674 84.5439 277.633 84.4468Z" fill="white"/>
<path d="M281.912 83.0832C282.133 83.0832 282.312 82.9055 282.312 82.6864C282.312 82.4672 282.133 82.2895 281.912 82.2895C281.692 82.2895 281.513 82.4672 281.513 82.6864C281.513 82.9055 281.692 83.0832 281.912 83.0832Z" fill="white"/>
<path d="M368.506 259.175C368.456 259.175 368.405 259.174 368.354 259.172C367.762 259.151 367.183 258.987 366.667 258.696C366.151 258.404 365.714 257.993 365.392 257.498C362.984 253.92 360.028 250.737 356.632 248.065C354.576 246.432 352.427 244.913 350.35 243.444C344.99 239.656 339.942 236.089 337.141 231.159C331.031 220.41 338.226 205.437 348.504 198.723C360.032 191.192 375.195 190.011 389.863 189.856C391.388 189.84 392.913 189.832 394.439 189.832C420.869 189.842 447.243 192.239 473.237 196.994C481.88 198.579 490.928 200.52 498.198 205.233C505.425 209.917 509.818 217.294 509.39 224.026C508.764 233.855 498.282 241.199 488.737 243.119C479.639 244.947 470.188 243.711 460.182 242.403C457.973 242.114 455.69 241.815 453.431 241.556C428.885 238.736 382.774 247.428 380.823 247.799L378.888 248.168L371.378 257.773C371.041 258.211 370.606 258.565 370.107 258.808C369.609 259.052 369.061 259.177 368.506 259.175Z" fill="#4E944F"/>
<path d="M477.812 211.229H374.064C373.466 211.229 372.892 210.992 372.468 210.571C372.045 210.151 371.807 209.58 371.807 208.985C371.807 208.39 372.045 207.819 372.468 207.398C372.892 206.978 373.466 206.741 374.064 206.741H477.812C478.41 206.741 478.984 206.978 479.408 207.398C479.831 207.819 480.069 208.39 480.069 208.985C480.069 209.58 479.831 210.151 479.408 210.571C478.984 210.992 478.41 211.229 477.812 211.229Z" fill="white"/>
<path d="M477.812 225.001H374.064C373.466 225 372.893 224.764 372.47 224.344C372.047 223.924 371.809 223.354 371.808 222.759C371.807 222.165 372.044 221.594 372.466 221.173C372.888 220.752 373.462 220.515 374.06 220.513H477.812C478.41 220.514 478.983 220.751 479.405 221.172C479.828 221.592 480.065 222.162 480.065 222.757C480.065 223.351 479.828 223.921 479.405 224.342C478.983 224.763 478.41 225 477.812 225.001Z" fill="white"/>
<path d="M386.155 238.772H374.064C373.466 238.771 372.893 238.534 372.471 238.114C372.048 237.693 371.811 237.123 371.811 236.528C371.811 235.934 372.048 235.364 372.471 234.943C372.893 234.523 373.466 234.286 374.064 234.285H386.155C386.753 234.286 387.326 234.523 387.748 234.943C388.171 235.364 388.408 235.934 388.408 236.528C388.408 237.123 388.171 237.693 387.748 238.114C387.326 238.534 386.753 238.771 386.155 238.772Z" fill="white"/>
<path d="M369.787 274.817C375.847 274.817 380.76 269.935 380.76 263.911C380.76 257.888 375.847 253.005 369.787 253.005C363.727 253.005 358.815 257.888 358.815 263.911C358.815 269.935 363.727 274.817 369.787 274.817Z" fill="white"/>
<path d="M369.787 274.951C367.591 274.951 365.443 274.303 363.617 273.09C361.79 271.877 360.367 270.153 359.526 268.136C358.686 266.119 358.466 263.899 358.894 261.758C359.323 259.616 360.381 257.649 361.934 256.105C363.487 254.561 365.466 253.51 367.62 253.084C369.775 252.658 372.008 252.877 374.037 253.712C376.067 254.548 377.801 255.963 379.022 257.778C380.242 259.593 380.894 261.728 380.894 263.911C380.89 266.838 379.719 269.644 377.637 271.714C375.555 273.783 372.732 274.947 369.787 274.951Z" fill="#3F3D56"/>
<path d="M368.966 268.27C368.942 268.27 368.919 268.269 368.896 268.268C368.689 268.258 368.487 268.204 368.303 268.109C368.12 268.014 367.959 267.881 367.832 267.719L365.998 265.375C365.882 265.228 365.797 265.058 365.747 264.878C365.697 264.697 365.683 264.508 365.707 264.322C365.73 264.136 365.79 263.957 365.883 263.794C365.976 263.631 366.101 263.488 366.25 263.373L366.316 263.322C366.465 263.207 366.635 263.122 366.817 263.072C366.998 263.022 367.188 263.009 367.375 263.032C367.563 263.055 367.743 263.115 367.907 263.208C368.071 263.3 368.215 263.424 368.331 263.572C368.423 263.69 368.541 263.787 368.674 263.856C368.808 263.925 368.955 263.965 369.106 263.972C369.257 263.979 369.407 263.954 369.547 263.899C369.687 263.843 369.813 263.758 369.917 263.649L373.64 259.742C373.902 259.468 374.263 259.308 374.643 259.298C375.024 259.287 375.393 259.427 375.669 259.687L375.73 259.745C375.867 259.874 375.977 260.028 376.054 260.199C376.131 260.371 376.173 260.555 376.178 260.742C376.183 260.93 376.151 261.116 376.084 261.291C376.016 261.466 375.915 261.626 375.785 261.762L370.007 267.824C369.873 267.965 369.712 268.077 369.533 268.154C369.354 268.23 369.161 268.27 368.966 268.27Z" fill="white"/>
<path d="M164.909 122.932L158.196 82.8069C158.061 81.9946 158.256 81.1623 158.738 80.4925C159.219 79.8227 159.949 79.3703 160.766 79.2343L191.253 74.1952C192.071 74.0611 192.908 74.2546 193.582 74.7334C194.256 75.2122 194.711 75.9371 194.848 76.7491L201.561 116.875C201.696 117.687 201.501 118.519 201.019 119.189C200.538 119.859 199.808 120.311 198.991 120.447L168.504 125.486C167.686 125.62 166.849 125.427 166.175 124.948C165.501 124.469 165.046 123.744 164.909 122.932Z" fill="#3F3D56"/>
<path d="M165.22 110.426L160.905 84.6299C160.778 83.8692 160.961 83.0897 161.412 82.4624C161.863 81.8352 162.546 81.4114 163.311 81.2841L189.513 76.9533C190.278 76.8277 191.062 77.009 191.693 77.4573C192.324 77.9057 192.751 78.5846 192.879 79.3451L198.852 115.051C198.979 115.812 198.796 116.592 198.345 117.219C197.894 117.846 197.211 118.27 196.446 118.397L180.215 121.08C176.805 121.639 173.312 120.832 170.501 118.835C167.69 116.838 165.791 113.814 165.22 110.426Z" fill="white"/>
<path d="M166.351 91.1264C166.228 90.383 166.406 89.6213 166.847 89.0083C167.287 88.3953 167.955 87.9812 168.703 87.8568L186.879 84.8526C187.249 84.7914 187.628 84.8033 187.994 84.8876C188.359 84.972 188.705 85.1271 189.01 85.3441C189.316 85.5611 189.575 85.8358 189.774 86.1525C189.972 86.4692 190.106 86.8217 190.168 87.1898C190.23 87.558 190.218 87.9346 190.133 88.2981C190.048 88.6617 189.892 89.0051 189.674 89.3087C189.455 89.6123 189.179 89.8702 188.86 90.0676C188.542 90.2651 188.187 90.3982 187.817 90.4594L169.641 93.4636C168.893 93.5864 168.126 93.4092 167.51 92.9711C166.893 92.5329 166.476 91.8695 166.351 91.1264Z" fill="#4E944F"/>
<path d="M167.81 99.848C167.687 99.1047 167.865 98.3429 168.306 97.73C168.747 97.117 169.414 96.7029 170.162 96.5785L188.338 93.5743C189.086 93.4507 189.853 93.6274 190.469 94.0658C191.086 94.5041 191.503 95.168 191.627 95.9115C191.752 96.655 191.574 97.4172 191.133 98.0303C190.692 98.6435 190.024 99.0574 189.276 99.1811L171.1 102.185C170.352 102.308 169.585 102.131 168.969 101.693C168.352 101.255 167.935 100.591 167.81 99.848Z" fill="#4E944F"/>
<path d="M169.269 108.57C169.146 107.826 169.324 107.065 169.765 106.452C170.206 105.839 170.873 105.425 171.621 105.3L189.797 102.296C190.167 102.235 190.546 102.247 190.912 102.331C191.278 102.415 191.623 102.57 191.928 102.787C192.234 103.004 192.493 103.279 192.692 103.596C192.891 103.913 193.025 104.265 193.086 104.633C193.148 105.001 193.136 105.378 193.051 105.741C192.966 106.105 192.81 106.448 192.592 106.752C192.373 107.056 192.097 107.313 191.778 107.511C191.46 107.708 191.105 107.841 190.735 107.903L172.559 110.907C171.811 111.03 171.044 110.853 170.428 110.414C169.811 109.976 169.395 109.313 169.269 108.57Z" fill="#4E944F"/>
<path d="M324.201 531.012L324.684 520.213C329.722 517.536 335.34 516.123 341.052 516.094C333.191 522.483 334.173 534.797 328.844 543.388C327.161 546.055 324.896 548.311 322.216 549.989C319.537 551.668 316.512 552.725 313.365 553.083L306.786 557.087C305.884 552.085 306.083 546.948 307.37 542.03C308.657 537.112 311.001 532.529 314.242 528.598C316.081 526.411 318.191 524.463 320.52 522.799C322.096 526.929 324.201 531.012 324.201 531.012Z" fill="#75BD76"/>
<path d="M411.425 558.251C411.426 558.39 411.399 558.527 411.345 558.655C411.292 558.784 411.214 558.9 411.115 558.998C411.017 559.096 410.9 559.174 410.771 559.227C410.642 559.28 410.503 559.307 410.364 559.306H124.69C124.408 559.306 124.138 559.195 123.939 558.997C123.74 558.799 123.628 558.531 123.628 558.251C123.628 557.971 123.74 557.703 123.939 557.505C124.138 557.307 124.408 557.196 124.69 557.196H410.364C410.503 557.196 410.642 557.223 410.771 557.276C410.9 557.329 411.017 557.406 411.115 557.504C411.214 557.602 411.292 557.719 411.345 557.847C411.399 557.975 411.426 558.113 411.425 558.251Z" fill="#75BD76"/>
<path d="M125.378 273.374C120.312 273.274 93.097 272.497 88.6342 272.688C88.3818 271.81 79.9217 282.586 79.7159 282.653C79.5788 282.797 79.4787 282.972 79.4243 283.162C79.3698 283.353 79.3626 283.554 79.4032 283.748C79.4438 283.942 79.531 284.123 79.6575 284.276C79.7839 284.43 79.9457 284.55 80.1292 284.628C80.6265 284.928 124.5 284.121 125.032 284.227C125.262 284.223 125.486 284.155 125.679 284.03C125.871 283.905 126.025 283.729 126.121 283.521L126.414 282.869C126.445 281.752 126.812 276.044 126.482 275.068C126.563 274.885 126.597 274.684 126.581 274.485C126.565 274.285 126.499 274.093 126.39 273.925C126.28 273.757 126.131 273.619 125.954 273.523C125.777 273.426 125.58 273.375 125.378 273.374Z" fill="#3F3D56"/>
<path opacity="0.17" d="M126.414 282.867C126.157 283.483 125.827 284.255 125.032 284.227L80.5924 284.723C80.3822 284.72 80.1762 284.664 79.9941 284.56C79.812 284.456 79.6599 284.306 79.5525 284.127C79.4451 283.947 79.3859 283.743 79.3807 283.534C79.3755 283.325 79.4245 283.119 79.5228 282.934L126.414 282.867Z" fill="black"/>
<path d="M88.8419 272.556C88.3635 271.734 76.4827 213.302 75.4911 212.813L67.3795 202.95L66.6545 202.408C65.6464 201.858 63.228 202.23 63.4458 203.76C65.3514 212.842 77.6086 264.563 77.8772 272.627L79.3527 282.9C79.379 283.075 79.4419 283.242 79.5373 283.391C79.6326 283.54 79.7584 283.668 79.9065 283.766C80.0545 283.864 80.2216 283.93 80.3969 283.96C80.5721 283.989 80.7518 283.982 80.9242 283.939C81.3471 283.894 81.7508 283.74 82.0956 283.492C82.4404 283.244 82.7143 282.912 82.8904 282.527C83.001 282.164 89.3973 272.766 88.8419 272.556Z" fill="#3F3D56"/>
<path opacity="0.17" d="M67.3776 202.95L82.8919 282.529C82.373 283.834 79.9453 284.749 79.3798 283.036C79.3699 283.034 63.4639 203.809 63.4477 203.762C63.2782 201.855 66.4479 201.795 67.3776 202.95Z" fill="black"/>
<path d="M67.8449 206.204L75.7246 217.121L84.5685 258.869L80.4567 262.434L67.8449 206.204Z" fill="#4E944F"/>
<path d="M120.292 279.003L122.472 279.091C122.506 278.457 122.612 277.828 122.786 277.217C123.114 275.668 123.408 273.827 122.048 273.834C121.126 273.746 120.812 274.907 120.648 276.171C120.605 277.123 120.486 278.07 120.292 279.003Z" fill="#2F2E41"/>
<path d="M107.787 276.089L109.256 276.144L109.967 276.171C109.953 275.396 110.315 273.8 109.434 273.406C109.294 273.346 109.142 273.316 108.99 273.318C108.163 273.27 107.917 273.895 107.842 274.615C107.794 275.05 107.814 275.512 107.801 275.872C107.801 275.947 107.794 276.021 107.787 276.089Z" fill="#2F2E41"/>
<path d="M103.434 275.913L104.91 275.974L105.614 276.001C105.6 275.111 106.072 273.169 104.637 273.141C103.311 273.067 103.482 274.744 103.448 275.695C103.448 275.77 103.441 275.845 103.434 275.913Z" fill="#2F2E41"/>
<path d="M99.0811 275.743L100.55 275.797L101.261 275.824C101.247 274.941 101.719 272.999 100.284 272.972C98.958 272.89 99.1289 274.568 99.0947 275.525C99.0947 275.6 99.0879 275.675 99.0811 275.743Z" fill="#2F2E41"/>
<path d="M94.7281 275.566L96.2041 275.627L96.908 275.655C96.8943 274.765 97.3658 272.829 95.9307 272.795C94.605 272.72 94.7759 274.398 94.7417 275.349C94.7417 275.424 94.7349 275.498 94.7281 275.566Z" fill="#2F2E41"/>
<path d="M90.3752 275.396L91.8444 275.451L92.5551 275.478C92.5414 274.663 92.9377 272.958 91.8854 272.666H91.8785C91.781 272.637 91.6796 272.624 91.5779 272.625C91.4538 272.614 91.3288 272.626 91.2089 272.659H91.202C90.2863 272.897 90.4162 274.323 90.3888 275.179C90.3888 275.254 90.382 275.329 90.3752 275.396Z" fill="#2F2E41"/>
<path d="M115.898 274.934L118.078 275.023C118.078 274.941 118.078 274.853 118.085 274.751C118.139 274.234 118.148 273.714 118.112 273.196C118.037 272.625 117.791 272.177 117.101 272.163C116.397 272.123 116.117 272.571 116.008 273.148C115.982 273.246 115.964 273.346 115.953 273.447V273.454C115.898 273.984 115.932 274.554 115.898 274.934Z" fill="#2F2E41"/>
<path d="M111.545 274.758L113.725 274.846C113.771 274.263 113.785 273.678 113.766 273.094C113.705 272.496 113.466 272.007 112.748 271.993C112.024 271.946 111.744 272.435 111.634 273.039C111.532 273.624 111.586 274.323 111.545 274.758Z" fill="#2F2E41"/>
<path d="M107.192 274.588L107.842 274.615L109.372 274.676C109.365 274.35 109.427 273.875 109.434 273.406C109.44 273.266 109.435 273.125 109.42 272.985C109.365 272.353 109.14 271.83 108.395 271.817C107.637 271.776 107.37 272.299 107.274 272.938C107.179 273.508 107.233 274.167 107.192 274.588Z" fill="#2F2E41"/>
<path d="M115.939 278.833L118.119 278.915C118.112 278.032 118.577 276.089 117.142 276.062C115.707 275.974 116.021 277.943 115.939 278.833Z" fill="#2F2E41"/>
<path d="M111.586 278.657L113.766 278.745C113.759 277.855 114.224 275.913 112.789 275.885C111.354 275.804 111.668 277.774 111.586 278.657Z" fill="#2F2E41"/>
<path d="M107.233 278.487L109.413 278.568C109.406 277.937 109.646 276.768 109.256 276.143C109.171 276.005 109.05 275.892 108.906 275.817C108.761 275.742 108.599 275.707 108.436 275.716C108.212 275.692 107.987 275.747 107.801 275.872C107.104 276.327 107.302 277.767 107.233 278.487Z" fill="#2F2E41"/>
<path d="M102.88 278.31L105.06 278.399C105.054 277.767 105.286 276.605 104.91 275.974C104.825 275.833 104.703 275.719 104.558 275.642C104.412 275.565 104.248 275.53 104.083 275.539C103.859 275.515 103.634 275.57 103.448 275.695C102.751 276.164 102.949 277.597 102.88 278.31Z" fill="#2F2E41"/>
<path d="M98.5275 278.14L100.707 278.222C100.701 277.59 100.94 276.422 100.55 275.797C100.465 275.659 100.344 275.546 100.2 275.47C100.055 275.395 99.893 275.36 99.7302 275.369C99.5064 275.346 99.2815 275.401 99.0946 275.525C98.3977 275.98 98.5958 277.42 98.5275 278.14Z" fill="#2F2E41"/>
<path d="M94.1746 277.964L96.3545 278.052C96.3476 277.42 96.58 276.259 96.2041 275.627C96.1199 275.486 95.9981 275.371 95.8522 275.294C95.7063 275.218 95.542 275.182 95.3773 275.193C95.1535 275.168 94.9282 275.224 94.7417 275.349C94.0447 275.817 94.2429 277.251 94.1746 277.964Z" fill="#2F2E41"/>
<path d="M89.8216 277.794L92.0015 277.876C91.9947 277.244 92.227 276.082 91.8443 275.451C91.76 275.312 91.639 275.198 91.4944 275.123C91.3499 275.048 91.1873 275.013 91.0243 275.023C90.8006 274.999 90.5757 275.055 90.3888 275.179C89.6918 275.641 89.89 277.074 89.8216 277.794Z" fill="#2F2E41"/>
</svg>
